<mxfile host="app.diagrams.net" modified="2020-10-03T19:25:31.675Z" agent="5.0 (Windows NT 10.0; Win64; x64) AppleWebKit/537.36 (KHTML, like Gecko) Chrome/86.0.4240.68 Safari/537.36 Edg/86.0.622.31" etag="Efj19uz7Sudi6FwwN3TN" version="13.7.7" type="github">
  <diagram id="C5RBs43oDa-KdzZeNtuy" name="Page-1">
    <mxGraphModel dx="1153" dy="644" grid="1" gridSize="10" guides="1" tooltips="1" connect="1" arrows="1" fold="1" page="1" pageScale="1" pageWidth="827" pageHeight="1169" math="0" shadow="0">
      <root>
        <mxCell id="WIyWlLk6GJQsqaUBKTNV-0" />
        <mxCell id="WIyWlLk6GJQsqaUBKTNV-1" parent="WIyWlLk6GJQsqaUBKTNV-0" />
        <mxCell id="JT6lB1VJ8nvIF8j4spxx-0" value="TRL Database" style="shape=cylinder3;whiteSpace=wrap;html=1;boundedLbl=1;backgroundOutline=1;size=15;fillColor=#f8cecc;strokeColor=#b85450;" vertex="1" parent="WIyWlLk6GJQsqaUBKTNV-1">
          <mxGeometry x="600" y="320" width="130" height="230" as="geometry" />
        </mxCell>
        <mxCell id="JT6lB1VJ8nvIF8j4spxx-1" value="&lt;span id=&quot;docs-internal-guid-186b1e25-7fff-9e88-fef6-ecf3b2273e68&quot;&gt;&lt;span style=&quot;font-family: &amp;#34;times new roman&amp;#34; ; background-color: transparent ; vertical-align: baseline&quot;&gt;&lt;b&gt;&lt;font style=&quot;font-size: 24px&quot;&gt;Transmission Risk Level (TRL) Application System Type: Object-Persistence System&lt;/font&gt;&lt;/b&gt;&lt;/span&gt;&lt;/span&gt;" style="text;html=1;strokeColor=none;fillColor=none;align=center;verticalAlign=middle;whiteSpace=wrap;rounded=0;" vertex="1" parent="WIyWlLk6GJQsqaUBKTNV-1">
          <mxGeometry x="170" y="60" width="470" height="80" as="geometry" />
        </mxCell>
        <mxCell id="JT6lB1VJ8nvIF8j4spxx-2" value="TRL Survey&lt;br&gt;Application" style="rounded=0;whiteSpace=wrap;html=1;fillColor=#ffe6cc;strokeColor=#d79b00;" vertex="1" parent="WIyWlLk6GJQsqaUBKTNV-1">
          <mxGeometry x="380" y="240" width="100" height="390" as="geometry" />
        </mxCell>
        <mxCell id="JT6lB1VJ8nvIF8j4spxx-3" value="" style="endArrow=classic;startArrow=classic;html=1;entryX=0;entryY=0.5;entryDx=0;entryDy=0;entryPerimeter=0;exitX=1;exitY=0.5;exitDx=0;exitDy=0;" edge="1" parent="WIyWlLk6GJQsqaUBKTNV-1" source="JT6lB1VJ8nvIF8j4spxx-2" target="JT6lB1VJ8nvIF8j4spxx-0">
          <mxGeometry width="50" height="50" relative="1" as="geometry">
            <mxPoint x="530" y="410" as="sourcePoint" />
            <mxPoint x="440" y="410" as="targetPoint" />
          </mxGeometry>
        </mxCell>
        <mxCell id="JT6lB1VJ8nvIF8j4spxx-11" style="edgeStyle=orthogonalEdgeStyle;rounded=0;orthogonalLoop=1;jettySize=auto;html=1;exitX=1;exitY=0.5;exitDx=0;exitDy=0;entryX=-0.012;entryY=0.069;entryDx=0;entryDy=0;entryPerimeter=0;startArrow=classic;startFill=1;" edge="1" parent="WIyWlLk6GJQsqaUBKTNV-1" source="JT6lB1VJ8nvIF8j4spxx-4" target="JT6lB1VJ8nvIF8j4spxx-2">
          <mxGeometry relative="1" as="geometry" />
        </mxCell>
        <mxCell id="JT6lB1VJ8nvIF8j4spxx-4" value="Student User 1" style="rounded=0;whiteSpace=wrap;html=1;fillColor=#fff2cc;strokeColor=#d6b656;" vertex="1" parent="WIyWlLk6GJQsqaUBKTNV-1">
          <mxGeometry x="140" y="239" width="120" height="55" as="geometry" />
        </mxCell>
        <mxCell id="JT6lB1VJ8nvIF8j4spxx-7" style="edgeStyle=orthogonalEdgeStyle;rounded=0;orthogonalLoop=1;jettySize=auto;html=1;entryX=0;entryY=0.5;entryDx=0;entryDy=0;startArrow=classic;startFill=1;" edge="1" parent="WIyWlLk6GJQsqaUBKTNV-1" source="JT6lB1VJ8nvIF8j4spxx-5" target="JT6lB1VJ8nvIF8j4spxx-2">
          <mxGeometry relative="1" as="geometry" />
        </mxCell>
        <mxCell id="JT6lB1VJ8nvIF8j4spxx-5" value="Student User 2" style="rounded=0;whiteSpace=wrap;html=1;fillColor=#fff2cc;strokeColor=#d6b656;" vertex="1" parent="WIyWlLk6GJQsqaUBKTNV-1">
          <mxGeometry x="140" y="407" width="120" height="55" as="geometry" />
        </mxCell>
        <mxCell id="JT6lB1VJ8nvIF8j4spxx-10" style="edgeStyle=orthogonalEdgeStyle;rounded=0;orthogonalLoop=1;jettySize=auto;html=1;exitX=1;exitY=0.5;exitDx=0;exitDy=0;startArrow=classic;startFill=1;entryX=-0.004;entryY=0.925;entryDx=0;entryDy=0;entryPerimeter=0;" edge="1" parent="WIyWlLk6GJQsqaUBKTNV-1" source="JT6lB1VJ8nvIF8j4spxx-6" target="JT6lB1VJ8nvIF8j4spxx-2">
          <mxGeometry relative="1" as="geometry">
            <mxPoint x="370" y="600" as="targetPoint" />
          </mxGeometry>
        </mxCell>
        <mxCell id="JT6lB1VJ8nvIF8j4spxx-6" value="Student User N" style="rounded=0;whiteSpace=wrap;html=1;fillColor=#fff2cc;strokeColor=#d6b656;" vertex="1" parent="WIyWlLk6GJQsqaUBKTNV-1">
          <mxGeometry x="140" y="575" width="120" height="51" as="geometry" />
        </mxCell>
        <mxCell id="JT6lB1VJ8nvIF8j4spxx-12" value="&lt;b style=&quot;font-size: 21px&quot;&gt;&lt;font style=&quot;font-size: 21px&quot;&gt;.&lt;br&gt;.&lt;br&gt;.&lt;br&gt;&lt;/font&gt;&lt;/b&gt;" style="text;html=1;align=center;verticalAlign=middle;resizable=0;points=[];autosize=1;" vertex="1" parent="WIyWlLk6GJQsqaUBKTNV-1">
          <mxGeometry x="190" y="490" width="20" height="50" as="geometry" />
        </mxCell>
        <mxCell id="JT6lB1VJ8nvIF8j4spxx-13" value="Application downlads&lt;br&gt;current TRL database&amp;nbsp;" style="text;html=1;align=center;verticalAlign=middle;resizable=0;points=[];autosize=1;" vertex="1" parent="WIyWlLk6GJQsqaUBKTNV-1">
          <mxGeometry x="484" y="160" width="130" height="30" as="geometry" />
        </mxCell>
        <mxCell id="JT6lB1VJ8nvIF8j4spxx-14" value="" style="endArrow=classic;html=1;" edge="1" parent="WIyWlLk6GJQsqaUBKTNV-1">
          <mxGeometry width="50" height="50" relative="1" as="geometry">
            <mxPoint x="601" y="200" as="sourcePoint" />
            <mxPoint x="481" y="200" as="targetPoint" />
          </mxGeometry>
        </mxCell>
        <mxCell id="JT6lB1VJ8nvIF8j4spxx-16" value="" style="endArrow=classic;html=1;" edge="1" parent="WIyWlLk6GJQsqaUBKTNV-1">
          <mxGeometry width="50" height="50" relative="1" as="geometry">
            <mxPoint x="381" y="200" as="sourcePoint" />
            <mxPoint x="261" y="200" as="targetPoint" />
          </mxGeometry>
        </mxCell>
        <mxCell id="JT6lB1VJ8nvIF8j4spxx-17" value="Student is able to search&amp;nbsp;&lt;br&gt;TRL database" style="text;html=1;align=center;verticalAlign=middle;resizable=0;points=[];autosize=1;" vertex="1" parent="WIyWlLk6GJQsqaUBKTNV-1">
          <mxGeometry x="246" y="160" width="150" height="30" as="geometry" />
        </mxCell>
        <mxCell id="JT6lB1VJ8nvIF8j4spxx-18" value="Application uploads &lt;br&gt;surveys to TRL Database&amp;nbsp;" style="text;html=1;align=center;verticalAlign=middle;resizable=0;points=[];autosize=1;" vertex="1" parent="WIyWlLk6GJQsqaUBKTNV-1">
          <mxGeometry x="474" y="670" width="150" height="30" as="geometry" />
        </mxCell>
        <mxCell id="JT6lB1VJ8nvIF8j4spxx-19" value="" style="endArrow=none;html=1;endFill=0;startArrow=classic;startFill=1;" edge="1" parent="WIyWlLk6GJQsqaUBKTNV-1">
          <mxGeometry width="50" height="50" relative="1" as="geometry">
            <mxPoint x="601" y="710" as="sourcePoint" />
            <mxPoint x="481" y="710" as="targetPoint" />
          </mxGeometry>
        </mxCell>
        <mxCell id="JT6lB1VJ8nvIF8j4spxx-20" value="" style="endArrow=none;html=1;startArrow=classic;startFill=1;endFill=0;" edge="1" parent="WIyWlLk6GJQsqaUBKTNV-1">
          <mxGeometry width="50" height="50" relative="1" as="geometry">
            <mxPoint x="381" y="710" as="sourcePoint" />
            <mxPoint x="261" y="710" as="targetPoint" />
          </mxGeometry>
        </mxCell>
        <mxCell id="JT6lB1VJ8nvIF8j4spxx-21" value="Student fills out their&lt;br&gt;own survey" style="text;html=1;align=center;verticalAlign=middle;resizable=0;points=[];autosize=1;" vertex="1" parent="WIyWlLk6GJQsqaUBKTNV-1">
          <mxGeometry x="261" y="670" width="120" height="30" as="geometry" />
        </mxCell>
      </root>
    </mxGraphModel>
  </diagram>
</mxfile>
